<svg xmlns="http://www.w3.org/2000/svg" viewBox="0 0 256 301">
  <path fill="#3DDC84" d="M78.389.858a8.824 8.824 0 0 0-4.19 1.089c-4.218 2.338-5.765 7.757-3.428 11.972l9.523 17.196C57.35 45.31 42.147 69.558 42.147 97.134v5.783c-5.753 2.373-9.806 8.015-9.806 14.609v98.574c0 8.738 7.085 15.823 15.823 15.823h169.806c8.738 0 15.823-7.085 15.823-15.823v-98.574c0-6.594-4.052-12.236-9.806-14.609v-5.783c0-27.576-15.204-51.824-38.148-66.019l9.524-17.196c2.337-4.215.79-9.634-3.429-11.972a8.824 8.824 0 0 0-4.19-1.089c-3.115 0-6.021 1.627-7.782 4.518L169.42 23.35a85.47 85.47 0 0 0-31.997-6.162c-11.222 0-21.886 2.209-31.688 6.162l-11.442-17.974C92.534 2.485 89.628.858 86.513.858h-8.124zm.679 39.559c21.947 0 39.862 17.916 39.862 39.862 0 21.947-17.915 39.862-39.862 39.862-21.946 0-39.861-17.915-39.861-39.862 0-21.946 17.915-39.862 39.861-39.862zm98.667 0c21.947 0 39.862 17.916 39.862 39.862 0 21.947-17.915 39.862-39.862 39.862-21.946 0-39.861-17.915-39.861-39.862 0-21.946 17.915-39.862 39.861-39.862zM48.083 137.747h160.667v80.478H48.083v-80.478z"/>
</svg>

