<svg xmlns="http://www.w3.org/2000/svg" viewBox="0 0 192 192">
  <path fill="#FF6384" d="M161.271 96.556c-22.368.439-17.709 14.599-33.473 18.18-16.014 3.638-18.542-39.111-34.552-39.111-16.012 0-19.559 41.526-39.608 70.034l-.066.1c-18.365 26.167-19.193-27.423-28.524-61.295-10.045-36.456-20.464-57.458-20.464-57.458s-3.746 3.241-5.033 7.724c-12.737 45.898-32.025 146.013 17.959 146.013 46.018 0 74.417-123.589 102.657-123.589 27.398 0-14.177 104.4 33.819 104.4 48.039 0 33.351-65.506 33.351-65.506s-4.043-.815-26.066.508z"/>
</svg>

