<svg xmlns="http://www.w3.org/2000/svg" viewBox="0 0 256 288">
  <path fill="#9B4F96" d="M255.569 84.452c-.002-4.83-1.035-9.098-3.124-12.76-2.052-3.603-5.125-6.622-9.247-9.009-34.025-19.619-68.083-39.178-102.097-58.817-9.17-5.294-18.061-5.101-27.163.269C100.395 12.39 32.59 51.237 12.385 62.94 4.064 67.757.015 75.129.013 84.711 0 124.166.013 163.62 0 203.076c.002 4.724.991 8.909 2.988 12.517 2.053 3.711 5.169 6.813 9.386 9.254 20.206 11.703 88.02 50.547 101.56 58.536 9.106 5.373 17.997 5.565 27.17.269 34.015-19.64 68.075-39.198 102.105-58.817 4.217-2.44 7.333-5.544 9.386-9.252 1.994-3.608 2.985-7.793 2.987-12.518 0 0 0-78.889-.013-118.613"/>
  <path fill="#fff" d="M128.182 143.509c-3.46-2.567-7.32-4.35-11.575-5.35-4.254-1-8.646-1.5-13.176-1.5-2.15 0-4.33.183-6.537.55a50.555 50.555 0 0 0-6.488 1.6c-2.1.683-4.121 1.5-6.063 2.45a30.114 30.114 0 0 0-5.356 3.25l3.606 6.454a33.97 33.97 0 0 1 4.27-2.6c1.542-.783 3.155-1.467 4.84-2.05 1.684-.583 3.369-1.033 5.054-1.35 1.684-.317 3.32-.475 4.906-.475 3.204 0 6.296.358 9.276 1.075 2.98.717 5.604 1.892 7.871 3.525 2.268 1.633 4.066 3.792 5.395 6.475 1.33 2.683 1.994 6.042 1.994 10.075v5.1c-2.49-1.4-5.19-2.492-8.102-3.275-2.912-.783-6.296-1.175-10.152-1.175-3.32 0-6.41.442-9.27 1.325-2.86.883-5.337 2.125-7.432 3.725-2.095 1.6-3.747 3.525-4.957 5.775-1.21 2.25-1.815 4.75-1.815 7.5 0 2.8.585 5.317 1.754 7.55 1.17 2.233 2.8 4.133 4.891 5.7 2.092 1.567 4.549 2.767 7.371 3.6 2.822.833 5.918 1.25 9.288 1.25 4.434 0 8.37-.483 11.81-1.45 3.439-.967 6.014-2.217 7.724-3.75.4.6.84 1.217 1.32 1.85.48.633 1.001 1.217 1.561 1.75l6.458-4.854a14.838 14.838 0 0 1-2.64-3.95c-.64-1.433-.96-3.283-.96-5.55v-31.15c0-3.233-.561-6.208-1.684-8.925-1.122-2.717-2.767-5.04-4.934-6.975zm-4.57 43.825c-1.122.85-2.384 1.525-3.785 2.025-1.402.5-2.881.858-4.44 1.075-1.558.217-3.078.325-4.558.325-2.053 0-4.007-.225-5.863-.675-1.856-.45-3.482-1.142-4.879-2.075-1.396-.933-2.502-2.125-3.317-3.575-.815-1.45-1.222-3.208-1.222-5.275 0-1.867.37-3.5 1.112-4.9.741-1.4 1.793-2.567 3.156-3.5 1.363-.933 2.986-1.633 4.869-2.1 1.882-.467 3.955-.7 6.219-.7 3.152 0 6.036.35 8.651 1.05 2.615.7 4.729 1.517 6.342 2.45v15.35c-.741.783-1.662 1.483-2.285 2.1zm39.643-36.575c-2.615-2.567-5.79-4.35-9.526-5.35-3.736-1-7.724-1.5-11.963-1.5-2.15 0-4.33.183-6.537.55a50.555 50.555 0 0 0-6.488 1.6c-2.1.683-4.121 1.5-6.063 2.45a30.114 30.114 0 0 0-5.356 3.25l3.606 6.454a33.97 33.97 0 0 1 4.27-2.6c1.542-.783 3.155-1.467 4.84-2.05 1.684-.583 3.369-1.033 5.054-1.35 1.684-.317 3.32-.475 4.906-.475 3.204 0 6.296.358 9.276 1.075 2.98.717 5.604 1.892 7.871 3.525 2.268 1.633 4.066 3.792 5.395 6.475 1.33 2.683 1.994 6.042 1.994 10.075v5.1c-2.49-1.4-5.19-2.492-8.102-3.275-2.912-.783-6.296-1.175-10.152-1.175-3.32 0-6.41.442-9.27 1.325-2.86.883-5.337 2.125-7.432 3.725-2.095 1.6-3.747 3.525-4.957 5.775-1.21 2.25-1.815 4.75-1.815 7.5 0 2.8.585 5.317 1.754 7.55 1.17 2.233 2.8 4.133 4.891 5.7 2.092 1.567 4.549 2.767 7.371 3.6 2.822.833 5.918 1.25 9.288 1.25 4.434 0 8.37-.483 11.81-1.45 3.439-.967 6.014-2.217 7.724-3.75.4.6.84 1.217 1.32 1.85.48.633 1.001 1.217 1.561 1.75l6.458-4.854a14.838 14.838 0 0 1-2.64-3.95c-.64-1.433-.96-3.283-.96-5.55v-31.15c0-3.233-.561-6.208-1.684-8.925-1.122-2.717-2.767-5.04-4.934-6.975zm-4.57 43.825c-1.122.85-2.384 1.525-3.785 2.025-1.402.5-2.881.858-4.44 1.075-1.558.217-3.078.325-4.558.325-2.053 0-4.007-.225-5.863-.675-1.856-.45-3.482-1.142-4.879-2.075-1.396-.933-2.502-2.125-3.317-3.575-.815-1.45-1.222-3.208-1.222-5.275 0-1.867.37-3.5 1.112-4.9.741-1.4 1.793-2.567 3.156-3.5 1.363-.933 2.986-1.633 4.869-2.1 1.882-.467 3.955-.7 6.219-.7 3.152 0 6.036.35 8.651 1.05 2.615.7 4.729 1.517 6.342 2.45v15.35c-.741.783-1.662 1.483-2.285 2.1z"/>
</svg>

