<svg xmlns="http://www.w3.org/2000/svg" viewBox="0 0 456 456">
  <path fill="#512BD4" d="M81.2 291.9c-.3 2.3-2.5 3.7-4.8 3.4-2.3-.3-3.7-2.5-3.4-4.8.3-2.3 2.5-3.7 4.8-3.4 2.3.3 3.7 2.5 3.4 4.8zM228 240c0-2.3-1.9-4.2-4.2-4.2-2.3 0-4.2 1.9-4.2 4.2 0 2.3 1.9 4.2 4.2 4.2 2.3 0 4.2-1.9 4.2-4.2zm224 0c0 124.5-100.9 225.4-225.4 225.4C102.1 465.4 1.2 364.5 1.2 240 1.2 115.5 102.1 14.6 226.6 14.6 351.1 14.6 452 115.5 452 240z"/>
  <path fill="#fff" d="M81.2 291.9c-.3 2.3-2.5 3.7-4.8 3.4-2.3-.3-3.7-2.5-3.4-4.8.3-2.3 2.5-3.7 4.8-3.4 2.3.3 3.7 2.5 3.4 4.8zm142.6-56.1c0-2.3-1.9-4.2-4.2-4.2-2.3 0-4.2 1.9-4.2 4.2 0 2.3 1.9 4.2 4.2 4.2 2.3 0 4.2-1.9 4.2-4.2zm-4.2 4.2c-2.3 0-4.2-1.9-4.2-4.2 0-2.3 1.9-4.2 4.2-4.2 2.3 0 4.2 1.9 4.2 4.2 0 2.3-1.9 4.2-4.2 4.2zm-142.6 51.9c.3-2.3 2.5-3.7 4.8-3.4 2.3.3 3.7 2.5 3.4 4.8-.3 2.3-2.5 3.7-4.8 3.4-2.3-.3-3.7-2.5-3.4-4.8zm4.8-3.4c-2.3-.3-4.5 1.1-4.8 3.4-.3 2.3 1.1 4.5 3.4 4.8 2.3.3 4.5-1.1 4.8-3.4.3-2.3-1.1-4.5-3.4-4.8zm142-52.7c2.3 0 4.2-1.9 4.2-4.2 0-2.3-1.9-4.2-4.2-4.2-2.3 0-4.2 1.9-4.2 4.2 0 2.3 1.9 4.2 4.2 4.2z"/>
  <path fill="#fff" d="M132.3 195.5h-17.8v49.6h17.8c15.4 0 27.9-11.1 27.9-24.8s-12.5-24.8-27.9-24.8zm0 39.7h-7.9v-29.8h7.9c11 0 19.9 6.7 19.9 14.9s-8.9 14.9-19.9 14.9zm76.9-39.7h-31.7v49.6h31.7v-9.9h-21.8v-10.9h21.8v-9.9h-21.8v-9h21.8v-9.9zm65.4 0h-17.8v49.6h17.8c15.4 0 27.9-11.1 27.9-24.8s-12.5-24.8-27.9-24.8zm0 39.7h-7.9v-29.8h7.9c11 0 19.9 6.7 19.9 14.9s-8.9 14.9-19.9 14.9zm76.9-39.7h-31.7v49.6h31.7v-9.9h-21.8v-10.9h21.8v-9.9h-21.8v-9h21.8v-9.9z"/>
</svg>

