<svg xmlns="http://www.w3.org/2000/svg" viewBox="0 0 377.5 377.5">
  <path fill="#F8981D" d="M121.3 320.7s-13 7.5 9.3 10c27 3 40.8 2.6 70.5-3 0 0 7.8 4.9 18.8 9.1-66.7 28.6-151-1.7-98.6-16.1zm-8.7-39.9s-14.6 10.8 7.7 13.1c28.8 3 51.5 3.2 90.8-4.3 0 0 5.4 5.5 14 8.5-80.9 23.7-171 1.9-112.5-17.3z"/>
  <path fill="#5382A1" d="M201.4 188.4c16.4 18.9-4.3 35.9-4.3 35.9s41.6-21.5 22.5-48.4c-17.8-25.1-31.4-37.6 42.4-80.7 0 0-115.9 29-60.6 93.2zm91.7 161.3s9.6 7.9-10.6 14c-38.4 11.6-159.9 15.1-193.6.5-12.1-5.2 10.6-12.5 17.8-14 7.5-1.6 11.7-1.3 11.7-1.3-13.5-9.5-87.3 18.7-37.5 26.8 135.9 22.1 247.8-10 212.2-26z"/>
  <path fill="#F8981D" d="M126.8 235.1s-61.9 14.7-21.9 20c16.9 2.2 50.5 1.7 81.8-.9 25.6-2.2 51.3-6.8 51.3-6.8s-9 3.9-15.6 8.3c-62.9 16.6-184.5 8.9-149.5-8.1 29.6-14.4 53.9-12.5 53.9-12.5zm110.8 61.9c64-33.3 34.4-65.3 13.8-61-5.1 1.1-7.3 2-7.3 2s1.9-3 5.5-4.3c41-14.4 72.5 42.4-13.2 64.9 0 0 1-0.9 1.2-1.6z"/>
  <path fill="#5382A1" d="M298.4 7s35.5 35.5-33.7 90.2c-55.5 43.9-12.7 69 0 97.6-32.4-29.2-56.2-55-40.2-78.9 23.4-35.1 88.3-52.1 73.9-108.9zm-21.7 163.8c17.3 19.9-4.5 37.8-4.5 37.8s44-22.7 23.8-51.2c-18.8-26.6-33.2-39.8 44.9-85.3 0 0-122.6 30.6-64.2 98.7z"/>
</svg>

