<svg xmlns="http://www.w3.org/2000/svg" viewBox="0 0 256 256">
  <path fill="#00758F" d="M235.648 194.212c-13.918-.347-24.705 1.045-33.752 4.872-2.61 1.043-6.786 1.044-7.134 4.35 1.392 1.392 1.566 3.654 2.784 5.567 2.09 3.479 5.741 8.177 9.047 10.614 3.653 2.783 7.308 5.566 11.134 8.002 6.786 4.176 14.442 6.611 21.053 10.787 3.829 2.434 7.654 5.568 11.482 8.177 1.914 1.39 3.131 3.654 5.568 4.523v-.521c-1.219-1.567-1.567-3.828-2.784-5.568-1.738-1.74-3.48-3.306-5.22-5.046-5.045-6.784-11.308-12.7-18.093-17.571-5.567-3.828-17.747-9.047-20.008-15.398"/>
  <path fill="#00758F" d="M0 0h256v256H0z"/>
  <path fill="#F29111" d="M126.916.072c-64.832 0-60.784 28.115-60.784 28.115l.072 29.128h61.868v8.745H41.631S.145 61.355.145 126.77c0 65.417 36.21 63.097 36.21 63.097h21.61v-30.356s-1.165-36.21 35.632-36.21h61.362s34.475.557 34.475-33.319V33.97S194.67.072 126.916.072zM92.802 19.66a11.12 11.12 0 0 1 11.13 11.13 11.12 11.12 0 0 1-11.13 11.13 11.12 11.12 0 0 1-11.13-11.13 11.12 11.12 0 0 1 11.13-11.13z"/>
</svg>

