<svg xmlns="http://www.w3.org/2000/svg" viewBox="0 0 432.071 445.383">
<path fill="#336791" d="M216.035 0c-11.9 0-23.5 1.2-34.4 3.6-31 6.7-45.3 20.7-52.2 34.8 10.1-5.1 21.6-8 33.9-8 15.9 0 31.1 4.4 44.2 12.6 13.2 8.2 23.2 19.8 29.1 33.7 5.9 13.9 7.5 29.2 4.6 44.1-2.9 14.9-10.3 28.7-21.4 39.8-11.1 11.1-24.9 18.5-39.8 21.4-14.9 2.9-30.2 1.3-44.1-4.6-13.9-5.9-25.5-15.9-33.7-29.1-8.2-13.2-12.6-28.3-12.6-44.2 0-12.3 2.9-23.8 8-33.9-14.1 6.9-28.1 21.2-34.8 52.2-2.4 10.9-3.6 22.5-3.6 34.4 0 88.4 71.6 160 160 160s160-71.6 160-160S304.435 0 216.035 0z"/>
</svg>

