<svg xmlns="http://www.w3.org/2000/svg" viewBox="0 0 256 282">
  <path fill="#E55B2D" d="M0 200.57v-27.08l122.857-70.953v28.045L35.89 174.51l86.967 49.904v28.045L0 200.57Zm0-72.215V101.27l122.857-70.89v28.044L35.89 102.295l86.967 49.968v27.981L0 128.355Z"/>
  <path fill="#ED8E24" d="m133.143 281.428-122.857-70.89v-27.085l122.857 70.953v27.022Zm0-72.215-122.857-70.89v-27.086l122.857 70.953v27.023ZM256 200.57l-122.857 70.89v-27.981l86.967-49.968-86.967-49.904v-28.045L256 173.427v27.143Zm0-72.215-122.857 70.89v-27.981l86.967-49.968-86.967-49.904V43.347L256 101.27v27.085Z"/>
  <path fill="#F8BF3C" d="m133.143 209.174-122.857-70.89v-27.086l122.857 70.953v27.023Zm122.857-70.89-122.857 70.89v-27.022l122.857-70.954v27.086Z"/>
</svg>

